<svg xmlns="http://www.w3.org/2000/svg" width="21" height="21" viewBox="0 0 21 21">
  <path id="save" d="M20.341,6.841,16.409,2.909a2.25,2.25,0,0,0-1.591-.659H2.25A2.25,2.25,0,0,0,0,4.5V21a2.25,2.25,0,0,0,2.25,2.25h16.5A2.25,2.25,0,0,0,21,21V8.432a2.25,2.25,0,0,0-.659-1.591ZM10.5,20.25a3,3,0,1,1,3-3A3,3,0,0,1,10.5,20.25ZM15,5.976v4.712a.563.563,0,0,1-.562.563H3.563A.563.563,0,0,1,3,10.688V5.813a.563.563,0,0,1,.563-.562H14.274a.562.562,0,0,1,.4.165l.163.163a.562.562,0,0,1,.165.4Z" transform="translate(0 -2.25)" fill="#fff"/>
</svg>
