<svg xmlns="http://www.w3.org/2000/svg" width="31" height="31" viewBox="0 0 31 31">
  <g id="building" transform="translate(-1238 -486)">
    <rect id="Rectangle_907" data-name="Rectangle 907" width="31" height="31" transform="translate(1238 486)" fill-rule="evenodd" opacity="0"/>
    <g id="页面-1" transform="translate(1239 487)">
      <g id="Building-2" data-name="Building">
        <g id="building_3_fill">
          <path id="MingCute" d="M28.394,0V28.394H0V0ZM14.9,27.516l-.014,0-.084.042-.022,0h0l-.018,0-.084-.042a.025.025,0,0,0-.028.006l0,.013-.02.506.006.024.013.014.123.088.018,0h0l.014,0,.123-.088.015-.019h0l0-.02-.02-.506a.025.025,0,0,0-.019-.021Zm.313-.133-.016,0-.219.109-.012.012h0l0,.013.021.508.006.015h0l.01.008.238.11a.03.03,0,0,0,.034-.009l0-.017-.04-.727a.03.03,0,0,0-.023-.025Zm-.846,0a.027.027,0,0,0-.032.006l-.007.016-.04.727a.027.027,0,0,0,.02.028l.019,0,.238-.11.011-.01h0l0-.014.021-.508,0-.015h0l-.011-.01Z" fill="none"/>
          <path id="形状" d="M19.38,2a2.366,2.366,0,0,1,2.366,2.366V23.3a1.183,1.183,0,0,1,0,2.366H5.183a1.183,1.183,0,1,1,0-2.366V4.366A2.366,2.366,0,0,1,7.549,2ZM14.648,15.014H12.282A1.183,1.183,0,0,0,11.1,16.2v7.1h4.732V16.2A1.183,1.183,0,0,0,14.648,15.014ZM11.1,10.282a1.183,1.183,0,1,0,1.183,1.183A1.183,1.183,0,0,0,11.1,10.282Zm4.732,0a1.183,1.183,0,1,0,1.183,1.183A1.183,1.183,0,0,0,15.831,10.282ZM11.1,6.732a1.183,1.183,0,1,0,1.183,1.183A1.183,1.183,0,0,0,11.1,6.732Zm4.732,0a1.183,1.183,0,1,0,1.183,1.183A1.183,1.183,0,0,0,15.831,6.732Z" transform="translate(0.732 0.366)" fill-rule="evenodd" />
        </g>
      </g>
    </g>
  </g>
</svg>
