<svg xmlns="http://www.w3.org/2000/svg" width="31" height="31" viewBox="0 0 31 31">
  <g id="logout" transform="translate(-1150 -495)">
    <rect id="Rectangle_866" data-name="Rectangle 866" width="31" height="31" transform="translate(1150 495)" fill-rule="oddeven" opacity="0"/>
    <g id="Group_2431" data-name="Group 2431" transform="translate(1101.464 -308.887)">
      <g id="_icons" transform="translate(52 807)">
        <g id="Group_2430" data-name="Group 2430" transform="translate(0 0)">
          <path id="Path_573" data-name="Path 573" d="M24.24,11.482c-.134-.134-.134-.268-.268-.4L21.294,8.4a1.326,1.326,0,0,0-1.875,1.875l.4.4H16.339A1.265,1.265,0,0,0,15,12.017a1.265,1.265,0,0,0,1.339,1.339h3.482l-.4.4a1.3,1.3,0,0,0,0,1.875,1.295,1.295,0,0,0,1.875,0l2.678-2.678c.134-.134.268-.268.268-.4A1.479,1.479,0,0,0,24.24,11.482Z" transform="translate(-0.269 -1.304)" fill-rule="oddeven"/>
          <path id="Path_574" data-name="Path 574" d="M21.409,17.731A1.265,1.265,0,0,0,20.07,19.07v1.339a1.265,1.265,0,0,1-1.339,1.339H17.391V10.231a3.964,3.964,0,0,0-2.544-3.75l-2.143-.8h6.026A1.265,1.265,0,0,1,20.07,7.017V8.357a1.339,1.339,0,0,0,2.678,0V7.017A3.946,3.946,0,0,0,18.731,3H5.339a.492.492,0,0,0-.4.134h0a.468.468,0,0,0-.268.134h0L4.536,3.4a.288.288,0,0,0-.268.268V3.8A.288.288,0,0,0,4,4.071H4V23.087a1.356,1.356,0,0,0,.8,1.205l8.838,3.348a2.279,2.279,0,0,0,.937.134,2.014,2.014,0,0,0,1.473-.536A2.95,2.95,0,0,0,17.258,25.1v-.67H18.6a3.946,3.946,0,0,0,4.017-4.017V19.07A1.158,1.158,0,0,0,21.409,17.731ZM6.678,22.15V6.214l7.1,2.678a1.612,1.612,0,0,1,.937,1.339V23.087h0V25.1Z" transform="translate(-4 -3)" fill-rule="oddeven"/>
        </g>
      </g>
      <path id="Path_575" data-name="Path 575" d="M2020.364,809.122v17.3l8.57,3.2,1.521-.641v-15.7l-1.521-2.082-7.689-2.963Z" transform="translate(-1966.538 0.421)" fill-rule="oddeven"/>
    </g>
  </g>
</svg>
