<svg xmlns="http://www.w3.org/2000/svg" width="31" height="31" viewBox="0 0 31 31">
  <g id="subtraction" transform="translate(-1387 -495)">
    <rect id="Rectangle_877" data-name="Rectangle 877" width="31" height="31" transform="translate(1387 495)" fill-rule="evenodd" opacity="0"/>
    <path id="Subtraction_1" data-name="Subtraction 1" d="M19,25H2a2,2,0,0,1-2-2V2A2,2,0,0,1,2,0H19a2,2,0,0,1,2,2V23A2,2,0,0,1,19,25ZM4.5,16a1.5,1.5,0,0,0,0,3h12a1.5,1.5,0,0,0,0-3Zm0-6a1.5,1.5,0,1,0,0,3h12a1.5,1.5,0,1,0,0-3Zm0-6a1.5,1.5,0,1,0,0,3h12a1.5,1.5,0,1,0,0-3Z" transform="translate(1392 498)" fill-rule="evenodd"/>
  </g>
</svg>
