<svg xmlns="http://www.w3.org/2000/svg" width="31" height="31" viewBox="0 0 31 31">
  <g id="user" transform="translate(-1155 -484)">
    <rect id="Rectangle_906" data-name="Rectangle 906" width="31" height="31" transform="translate(1155 484)" fill-rule="evenodd" opacity="0"/>
    <g id="user-3-svgrepo-com" transform="translate(1156.04 485)">
      <path id="Path_619" data-name="Path 619" d="M13.375,2A6.375,6.375,0,1,0,19.75,8.375,6.375,6.375,0,0,0,13.375,2Z" transform="translate(0.836)" fill-rule="evenodd" />
      <path id="Path_620" data-name="Path 620" d="M10.386,13a7.054,7.054,0,0,0-5.354,2.423,4.482,4.482,0,0,0-1.07,2.667,4.173,4.173,0,0,0,1.106,2.926c1.878,2.148,4.875,3.459,9.142,3.459s7.265-1.311,9.142-3.459a4.174,4.174,0,0,0,1.106-2.926,4.483,4.483,0,0,0-1.07-2.667A7.054,7.054,0,0,0,18.036,13Z" transform="translate(0 3.025)" fill-rule="evenodd" />
    </g>
  </g>
</svg>
